# Blender v2.63 (sub 0) OBJ File: 'kinect.blend'
# www.blender.org
o Cube
v -0.145868 0.005064 -0.569541
v -0.145868 -0.073454 -0.232435
v -0.145868 0.005064 -0.252551
v 0.145868 0.005064 -0.569541
v -0.145868 -0.073454 -0.549426
v 0.145868 0.005064 -0.252551
v 0.145868 -0.073454 -0.232436
v 0.145868 -0.073454 -0.549426
v -0.063995 0.400910 -0.353433
v 0.145868 0.455426 -0.333360
v 0.170706 0.305389 -0.321180
v -0.133237 0.275566 -0.332161
v -0.133238 0.275566 -0.943240
v 0.170705 0.305389 -0.932259
v -0.063996 0.400910 -0.864639
v 0.145867 0.455426 -0.844565
v -0.145869 0.174290 -0.844565
v 0.145867 0.174290 -0.844565
v -0.145868 0.174290 -0.333360
v 0.145868 0.174290 -0.333360
v -0.145868 0.005064 0.569541
v -0.145868 -0.073454 0.232435
v -0.145868 0.005064 0.252551
v 0.145868 0.005064 0.569541
v -0.145868 -0.073454 0.549426
v 0.145868 0.005064 0.252551
v 0.145868 -0.073454 0.232436
v 0.145868 -0.073454 0.549426
v -0.145868 0.005064 0.000000
v 0.145868 0.005064 0.000000
v -0.145868 -0.073454 0.000000
v 0.145868 -0.073454 0.000000
v -0.063995 0.400910 0.353433
v 0.145868 0.455426 0.333360
v -0.063995 0.400910 0.000000
v 0.145868 0.455426 0.000000
v 0.170706 0.305389 0.321180
v -0.133237 0.275566 0.000000
v -0.133237 0.275566 0.332161
v 0.170706 0.305389 0.000000
v -0.133238 0.275566 0.943240
v 0.170705 0.305389 0.932259
v -0.063996 0.400910 0.864639
v 0.145867 0.455426 0.844565
v -0.145869 0.174290 0.844565
v 0.145867 0.174290 0.844565
v -0.145868 0.174290 0.333360
v 0.145868 0.174290 0.333360
v -0.145868 0.174290 0.000000
v 0.145868 0.174290 0.000000
vn 0.982521 -0.186150 0.000000
vn -1.000000 -0.000000 0.000000
vn 0.000000 -1.000000 -0.000000
vn 0.000000 1.000000 0.000000
vn 1.000000 0.000001 -0.000000
vn -0.000001 -0.248172 -0.968716
vn -0.000001 -0.430912 -0.902394
vn 1.000000 -0.000000 0.000000
vn -0.875323 0.483540 0.000000
vn 0.000000 0.000000 1.000000
vn 0.045814 -0.629486 -0.775660
vn -0.251424 0.967877 0.000000
vn 0.982521 -0.186149 -0.000002
vn -0.875322 0.483540 0.000001
vn 0.986573 0.163324 0.000000
vn -0.992312 0.123763 0.000000
vn -0.033899 0.520635 -0.853106
vn 0.986573 0.163323 -0.000002
vn -0.992312 0.123763 0.000002
vn -0.000001 -0.248172 0.968716
vn -0.000001 -0.430912 0.902394
vn -0.000000 0.000000 -1.000000
vn 0.045814 -0.629486 0.775660
vn 0.982521 -0.186149 0.000002
vn -0.875322 0.483540 -0.000001
vn -0.033899 0.520635 0.853106
vn 0.986573 0.163323 0.000002
vn -0.992312 0.123763 -0.000002
s off
f 11//1 40//1 50//1 20//1
f 1//2 5//2 2//2 3//2
f 5//3 8//3 7//3 2//3
f 1//4 3//4 6//4 4//4
f 6//5 7//5 8//5 4//5
f 5//6 1//6 4//6 8//6
f 19//7 20//7 6//7 3//7
f 2//3 7//3 32//3 31//3
f 3//2 2//2 31//2 29//2
f 30//5 32//5 7//5 6//5
f 20//8 50//8 30//8 6//8
f 12//9 38//9 35//9 9//9
f 3//2 29//2 49//2 19//2
f 38//10 40//10 36//10 35//10
f 29//10 30//10 50//10 49//10
f 13//11 14//11 18//11 17//11
f 9//12 35//12 36//12 10//12
f 11//13 20//13 18//13 14//13
f 17//3 18//3 20//3 19//3
f 12//14 9//14 15//14 13//14
f 9//12 10//12 16//12 15//12
f 10//15 36//15 40//15 11//15
f 19//16 49//16 38//16 12//16
f 49//10 50//10 40//10 38//10
f 15//17 16//17 14//17 13//17
f 10//18 11//18 14//18 16//18
f 19//19 12//19 13//19 17//19
f 37//1 48//1 50//1 40//1
f 21//2 23//2 22//2 25//2
f 25//3 22//3 27//3 28//3
f 21//4 24//4 26//4 23//4
f 26//5 24//5 28//5 27//5
f 25//20 28//20 24//20 21//20
f 47//21 23//21 26//21 48//21
f 22//3 31//3 32//3 27//3
f 23//2 29//2 31//2 22//2
f 30//5 26//5 27//5 32//5
f 48//8 26//8 30//8 50//8
f 39//9 33//9 35//9 38//9
f 23//2 47//2 49//2 29//2
f 38//22 35//22 36//22 40//22
f 29//22 49//22 50//22 30//22
f 41//23 45//23 46//23 42//23
f 33//12 34//12 36//12 35//12
f 37//24 42//24 46//24 48//24
f 45//3 47//3 48//3 46//3
f 39//25 41//25 43//25 33//25
f 33//12 43//12 44//12 34//12
f 34//15 37//15 40//15 36//15
f 47//16 39//16 38//16 49//16
f 49//22 38//22 40//22 50//22
f 43//26 41//26 42//26 44//26
f 34//27 44//27 42//27 37//27
f 47//28 45//28 41//28 39//28
